<?xml version="1.0" standalone="no"?>
<!DOCTYPE svg PUBLIC "-//W3C//DTD SVG 20010904//EN"
 "http://www.w3.org/TR/2001/REC-SVG-20010904/DTD/svg10.dtd">
<svg version="1.0" xmlns="http://www.w3.org/2000/svg"
 width="700.000000pt" height="700.000000pt" viewBox="0 0 700.000000 700.000000"
 preserveAspectRatio="xMidYMid meet">
<metadata>
Created by potrace 1.14, written by Peter Selinger 2001-2017
</metadata>
<g transform="translate(0.000000,700.000000) scale(0.100000,-0.100000)"
fill="#000000" stroke="none">
<path d="M3278 6995 c-1 -1 -42 -5 -89 -9 -47 -4 -95 -8 -105 -10 -10 -2 -41
-7 -69 -10 -428 -56 -875 -210 -1270 -439 -103 -60 -265 -165 -315 -204 -8 -6
-51 -40 -95 -74 -353 -275 -673 -651 -897 -1054 -49 -87 -148 -289 -148 -301
0 -2 -9 -23 -20 -47 -57 -123 -157 -435 -186 -582 -2 -11 -10 -54 -19 -95 -29
-147 -36 -200 -52 -370 -15 -166 -8 -599 12 -711 2 -13 7 -44 9 -69 10 -91 19
-142 51 -290 21 -96 91 -339 114 -395 5 -11 29 -74 55 -141 54 -140 169 -371
245 -494 29 -47 58 -94 64 -105 30 -49 176 -248 236 -320 375 -452 854 -804
1397 -1022 206 -83 463 -158 659 -193 33 -5 71 -12 84 -15 14 -2 45 -7 70 -10
25 -3 57 -7 69 -10 160 -31 717 -25 907 9 17 3 48 8 70 11 308 45 651 152 953
297 412 197 805 492 1102 827 36 41 70 79 76 85 6 6 48 61 94 121 152 200 276
403 388 638 29 59 52 110 52 113 0 3 8 24 19 47 53 118 148 420 177 562 4 18
31 165 39 205 7 40 21 141 32 240 8 70 10 517 2 595 -15 162 -21 220 -24 225
-2 3 -6 30 -10 60 -4 30 -22 123 -40 205 -53 232 -102 385 -197 610 -387 911
-1160 1625 -2103 1943 -168 57 -420 119 -555 137 -19 3 -46 7 -60 10 -13 2
-52 7 -86 11 -33 3 -74 8 -90 10 -32 5 -540 14 -546 9z"/>
</g>
</svg>
